<svg xmlns="http://www.w3.org/2000/svg" width="120" height="120" viewBox="0 0 120 120"><defs><style>.a{opacity:0.16;}.b{fill:none;}.c{fill:#fff;}</style></defs><g class="a"><path class="b" d="M120,0H0V120H120Z"/><path class="c" d="M111,105.9a5.036,5.036,0,0,1-5.05,5.05H41a5.036,5.036,0,0,1-5.05-5.05V101H111ZM73.5,40.95C92.25,40.95,111,51,111,71H36C36,51,54.75,40.95,73.5,40.95ZM97.9,61c-5.55-7.75-17.35-10.05-24.4-10.05S54.65,53.25,49.1,61ZM111,81H36V91h75ZM26,21V1H36V21H61L59.85,31H12.05l7,70H26v10H17.4a8.305,8.305,0,0,1-8.15-7.35L1,21Z" transform="translate(4 4)"/></g></svg>