<svg xmlns="http://www.w3.org/2000/svg" width="98.371" height="126.56" viewBox="0 0 98.371 126.56"><defs><style>.a{fill:#ed3237;}.a,.b{fill-rule:evenodd;}.b{fill:#fefefe;}.c{fill:#d7181f;}</style></defs><g transform="translate(-25.354 -23.656)"><g transform="translate(25.354 23.656)"><path class="a" d="M3154.549,4312.267h-4.143q0,2.875.843,2.871a.629.629,0,0,0,.578-.412,2.425,2.425,0,0,0,.187-.98h2.361a6.978,6.978,0,0,1-.937,3.191,2.56,2.56,0,0,1-2.236,1.069q-3.254,0-3.252-6.4,0-6.377,3.236-6.377a2.872,2.872,0,0,1,2.767,2.231,15.193,15.193,0,0,1,.6,4.8Zm-2.329-2.231a6.584,6.584,0,0,0-.219-1.162c-.136-.393-.355-.591-.656-.591s-.513.2-.659.591a6.56,6.56,0,0,0-.2,1.162Z" transform="translate(-3096.197 -4217.079)"/><path class="a" d="M3462.03,4309.267a3.354,3.354,0,0,0-.64-.065c-.782,0-1.464.672-2.046,2.024v7.219H3457c.008-.121.013-.346.013-.68v-11.343h2.316v1.323a4.5,4.5,0,0,1,1.235-1.279,3.209,3.209,0,0,1,1.468-.385Z" transform="translate(-3396.192 -4217.904)"/><path class="a" d="M3735.192,4309.267a3.358,3.358,0,0,0-.64-.065c-.781,0-1.465.672-2.046,2.024v7.219h-2.345c.008-.121.013-.346.013-.68v-11.343h2.315v1.323a4.492,4.492,0,0,1,1.235-1.279,3.208,3.208,0,0,1,1.467-.385Z" transform="translate(-3661.35 -4217.904)"/><path class="a" d="M3970.975,4318.443h-1.014a1.577,1.577,0,0,1-1.5-.913q-.968,1.322-1.828,1.321a1.917,1.917,0,0,1-1.644-.908,4.147,4.147,0,0,1-.608-2.371,5.135,5.135,0,0,1,1.281-3.506,4.762,4.762,0,0,1,2.628-1.527,7.543,7.543,0,0,0-.064-1.252.674.674,0,0,0-.688-.615c-.449,0-.674.365-.686,1.093h-2.268q.36-3.669,3.018-3.666,2.733,0,2.734,3.505v5.943c.032.125.146.183.344.183a1.442,1.442,0,0,0,.3-.042v2.756Zm-2.671-5.24q-1.7.73-1.7,2.049c0,.5.16.754.486.754.467,0,.87-.557,1.2-1.664Z" transform="translate(-3888.708 -4217.922)"/><path class="a" d="M4247.085,4312.667a7.714,7.714,0,0,1-.826,3.394,2.453,2.453,0,0,1-2.252,1.2q-3.237,0-3.236-6.491,0-6.285,3.221-6.285a2.351,2.351,0,0,1,2.108,1.068,6.95,6.95,0,0,1,.859,3.056h-2.187c0-.882-.256-1.321-.766-1.321q-.607,0-.782,1.457c-.042.378-.061,1.056-.061,2.026a17.1,17.1,0,0,0,.122,2.437c.137.806.409,1.209.814,1.209.492,0,.732-.468.732-1.415,0-.089-.005-.2-.013-.339Z" transform="translate(-4157.002 -4216.362)"/><path class="a" d="M4520.549,4312.267h-4.144q0,2.875.843,2.871a.63.63,0,0,0,.58-.412,2.438,2.438,0,0,0,.185-.98h2.361a6.948,6.948,0,0,1-.937,3.191,2.559,2.559,0,0,1-2.234,1.069q-3.256,0-3.253-6.4,0-6.377,3.236-6.377a2.872,2.872,0,0,1,2.768,2.231,15.2,15.2,0,0,1,.595,4.8Zm-2.33-2.231a6.567,6.567,0,0,0-.218-1.162c-.136-.393-.354-.591-.656-.591s-.513.2-.659.591a6.424,6.424,0,0,0-.2,1.162Z" transform="translate(-4422.177 -4217.079)"/><path class="b" d="M1390.615,5426.727h-1.2a1.01,1.01,0,0,0-.059-.235l-.908-2.325v2.363c0,.071,0,.142.008.2h-1.1a1.64,1.64,0,0,0,.014-.211v-4.863a2.06,2.06,0,0,0-.014-.221h1.422a1.626,1.626,0,0,1,1.21.432,1.678,1.678,0,0,1,.426,1.219,1.483,1.483,0,0,1-.814,1.429l1.011,2.208Zm-1.35-3.668a.66.66,0,0,0-.205-.549,1,1,0,0,0-.608-.161v1.452a1.079,1.079,0,0,0,.637-.161.744.744,0,0,0,.176-.581Zm4.907,3.676h-3a2.15,2.15,0,0,0,.014-.22v-4.906c0-.07,0-.137-.007-.206h2.978v.9a2.3,2.3,0,0,0-.3-.023h-1.628v1.24h1.746v.917h-1.746v1.409h1.607c.088,0,.2-.006.337-.017Zm3.85-1.233a1.379,1.379,0,0,1-.447,1.079,1.625,1.625,0,0,1-1.13.4q-1.451,0-1.488-1.746h1.152a1.512,1.512,0,0,0-.015.213.951.951,0,0,0,.082.4.324.324,0,0,0,.3.226c.288,0,.433-.186.433-.557a1.431,1.431,0,0,0-.623-1.014c-.515-.449-.787-.69-.823-.726a1.328,1.328,0,0,1-.418-.916,1.454,1.454,0,0,1,.389-1.05,1.359,1.359,0,0,1,1.025-.4q1.358,0,1.49,1.465h-1.108a.213.213,0,0,0,.008-.058.747.747,0,0,0-.074-.338.285.285,0,0,0-.272-.183c-.234,0-.351.131-.351.4a.869.869,0,0,0,.344.644c.025.021.233.188.625.506a2.123,2.123,0,0,1,.9,1.649Zm3.828-3.109c-.128-.01-.247-.015-.359-.015h-.719v4.146a1.545,1.545,0,0,0,.014.2h-1.129a1.509,1.509,0,0,0,.015-.2v-4.148h-.733c-.094,0-.2.005-.33.015v-.947h3.241v.947Zm3.784,4.336h-1.194a1.019,1.019,0,0,0-.058-.234l-.908-2.325v2.363c0,.072,0,.14.008.205h-1.1a1.662,1.662,0,0,0,.014-.213v-4.863a1.941,1.941,0,0,0-.014-.221h1.422a1.622,1.622,0,0,1,1.211.433,1.676,1.676,0,0,1,.426,1.219,1.483,1.483,0,0,1-.814,1.429l1.012,2.208Zm-1.349-3.668a.657.657,0,0,0-.206-.548,1,1,0,0,0-.608-.163v1.453a1.079,1.079,0,0,0,.637-.161.747.747,0,0,0,.176-.581Zm4.987,1.035a6.067,6.067,0,0,1-.2,1.834,1.421,1.421,0,0,1-2.7,0,6.123,6.123,0,0,1-.2-1.834,5.985,5.985,0,0,1,.205-1.84,1.408,1.408,0,0,1,2.684,0,5.924,5.924,0,0,1,.205,1.84Zm-1.129,0q0-1.078-.029-1.334-.065-.565-.389-.565c-.216,0-.345.189-.388.565q-.029.256-.029,1.334t.029,1.313c.044.368.173.551.388.552s.344-.184.389-.552Q1408.143,5425.158,1408.144,5424.094Zm4.937.389h-3.228v-.924h3.228Zm3.659,2.245h-3.073a1.527,1.527,0,0,0,.015-.2v-4.863a1.589,1.589,0,0,0-.015-.22h1.115a1.044,1.044,0,0,0-.022.213v4.13h1.665c.089,0,.194,0,.316-.014v.955Zm3.8-2.634a6.067,6.067,0,0,1-.2,1.834,1.421,1.421,0,0,1-2.7,0,6.114,6.114,0,0,1-.2-1.834,5.977,5.977,0,0,1,.205-1.84,1.407,1.407,0,0,1,2.684,0,5.925,5.925,0,0,1,.2,1.84Zm-1.129,0q0-1.078-.03-1.334c-.043-.376-.174-.565-.389-.565s-.344.189-.388.565q-.029.256-.03,1.334t.03,1.313c.043.368.173.551.388.552s.346-.185.389-.552C1419.4,5425.241,1419.41,5424.8,1419.41,5424.094Zm4.922-2.654a1.468,1.468,0,0,0-.015.22v3.754a1.336,1.336,0,0,1-.44,1.064,1.879,1.879,0,0,1-2.208,0,1.318,1.318,0,0,1-.453-1.064v-3.763c0-.083,0-.155-.008-.212h1.062c-.005.063-.008.137-.008.219v3.653c0,.421.169.63.507.63s.513-.211.514-.63v-3.661c0-.074,0-.144-.008-.212Zm3.7.021a1.659,1.659,0,0,0-.015.222v5.059h-.931l-1.078-2.7v2.5c0,.074,0,.143.006.206h-1a1.433,1.433,0,0,0,.014-.206v-5.075h.984l1.025,2.7v-2.494a1.5,1.5,0,0,0-.015-.2Zm3.837,5.339h-.93c0-.014.027-.133.066-.352a1.393,1.393,0,0,1-.91.4,1.23,1.23,0,0,1-1.211-.968,7.291,7.291,0,0,1,.053-3.639,1.342,1.342,0,0,1,1.334-.954,1.406,1.406,0,0,1,1.122.455,1.845,1.845,0,0,1,.389,1.16h-1.129c0-.044.006-.085.006-.124,0-.393-.117-.587-.352-.587s-.383.191-.432.573q-.037.285-.037,1.466c0,.552.005.881.015.983.049.493.2.742.468.742a.566.566,0,0,0,.5-.332,1.163,1.163,0,0,0,.146-.6h-.463v-.852h1.364v2.632Zm3.609-.066h-3c.008-.073.013-.147.014-.22v-4.906c0-.07,0-.137-.008-.206h2.978v.9a2.285,2.285,0,0,0-.3-.023h-1.629v1.24h1.746v.917h-1.746v1.409h1.608c.088,0,.2-.006.337-.017Z" transform="translate(-1387.185 -5300.423)"/><rect class="c" width="48.124" height="116.415" transform="translate(0 0)"/><path class="b" d="M1674.9,1952.354l.152.985a4.122,4.122,0,0,1-.84.1,1.9,1.9,0,0,1-.941-.192,1.062,1.062,0,0,1-.469-.505,4.032,4.032,0,0,1-.136-1.318v-3.795h-.824v-.862h.825v-1.629l1.117-.67v2.3h1.116v.862h-1.116v3.857a1.95,1.95,0,0,0,.058.615.464.464,0,0,0,.19.218.751.751,0,0,0,.381.08,3.567,3.567,0,0,0,.486-.044Zm17.427-12.87v19.273l-8.565-.088a2.216,2.216,0,0,0-2.3,2.379,2.336,2.336,0,0,0,2.214,2.662l8.651.088v55.057c0,6,6.455,11.631,10.885,11.631h8.364v-4.813H1703.9c-2.9,0-6.99-3.476-6.99-8.135V1963.8h14.9v-4.812h-15.354v-19.458a1.858,1.858,0,0,0-1.966-2,2.017,2.017,0,0,0-2.159,1.954Zm-4.777,11.735,1.155.152a2.794,2.794,0,0,1-1.006,1.563,3.034,3.034,0,0,1-1.88.557,3,3,0,0,1-2.283-.888,3.472,3.472,0,0,1-.844-2.49,3.632,3.632,0,0,1,.852-2.571,2.885,2.885,0,0,1,2.214-.916,2.8,2.8,0,0,1,2.15.9,3.568,3.568,0,0,1,.835,2.525c0,.065,0,.165-.006.3h-4.905a2.528,2.528,0,0,0,.613,1.658,1.828,1.828,0,0,0,1.372.575,1.7,1.7,0,0,0,1.044-.322,2.152,2.152,0,0,0,.687-1.035Zm-3.654-1.789a2.062,2.062,0,0,1,.577-1.377,1.757,1.757,0,0,1,1.289-.514,1.707,1.707,0,0,1,1.379.644,2.223,2.223,0,0,1,.421,1.246ZM1676,1953.35v-9.084h1.116v3.268a2.462,2.462,0,0,1,1.963-.908,2.648,2.648,0,0,1,1.264.288,1.674,1.674,0,0,1,.767.795,3.675,3.675,0,0,1,.231,1.474v4.167h-1.118v-4.164a1.733,1.733,0,0,0-.359-1.216,1.334,1.334,0,0,0-1.019-.381,1.789,1.789,0,0,0-.926.256,1.455,1.455,0,0,0-.62.7,3.2,3.2,0,0,0-.184,1.212v3.594Z" transform="translate(-1663.331 -1918.744)"/></g></g></svg>